<mxfile host="app.diagrams.net" modified="2022-10-11T16:50:26.759Z" agent="5.0 (Windows NT 10.0; Win64; x64) AppleWebKit/537.36 (KHTML, like Gecko) Chrome/105.0.0.0 Safari/537.36" etag="5tNYvtI7jLo9QJRs5kfj" version="20.4.0" type="github" pages="2">
  <diagram id="aCiVp0mMgGmOo1VUoYXL" name="UML Diagram">
    <mxGraphModel dx="762" dy="374" grid="1" gridSize="13" guides="1" tooltips="1" connect="1" arrows="1" fold="1" page="1" pageScale="1" pageWidth="1100" pageHeight="850" background="#114B5F" math="0" shadow="0">
      <root>
        <mxCell id="0" />
        <mxCell id="1" parent="0" />
        <mxCell id="3_46uCCfhdefUjpDQMR_-1" value="ActorName" style="shape=umlActor;html=1;verticalLabelPosition=bottom;verticalAlign=top;align=center;fillColor=#F45B69;strokeColor=#028090;fontColor=#E4FDE1;" vertex="1" parent="1">
          <mxGeometry x="52" y="20" width="30" height="60" as="geometry" />
        </mxCell>
        <mxCell id="3_46uCCfhdefUjpDQMR_-2" value="Admin&lt;br&gt;" style="shape=umlActor;html=1;verticalLabelPosition=bottom;verticalAlign=top;align=center;fillColor=#F45B69;strokeColor=#028090;fontColor=#E4FDE1;" vertex="1" parent="1">
          <mxGeometry x="715" y="195" width="30" height="63" as="geometry" />
        </mxCell>
        <mxCell id="3_46uCCfhdefUjpDQMR_-3" value="Login" style="ellipse;whiteSpace=wrap;html=1;fillColor=#F45B69;strokeColor=#028090;fontColor=#E4FDE1;" vertex="1" parent="1">
          <mxGeometry x="180" y="30" width="140" height="70" as="geometry" />
        </mxCell>
        <mxCell id="3_46uCCfhdefUjpDQMR_-4" value="Search Restaurant" style="ellipse;whiteSpace=wrap;html=1;fillColor=#F45B69;strokeColor=#028090;fontColor=#E4FDE1;" vertex="1" parent="1">
          <mxGeometry x="180" y="130" width="140" height="70" as="geometry" />
        </mxCell>
        <mxCell id="3_46uCCfhdefUjpDQMR_-5" value="Order Food" style="ellipse;whiteSpace=wrap;html=1;fillColor=#F45B69;strokeColor=#028090;fontColor=#E4FDE1;" vertex="1" parent="1">
          <mxGeometry x="180" y="230" width="140" height="70" as="geometry" />
        </mxCell>
        <mxCell id="3_46uCCfhdefUjpDQMR_-6" value="Logout" style="ellipse;whiteSpace=wrap;html=1;fillColor=#F45B69;strokeColor=#028090;fontColor=#E4FDE1;" vertex="1" parent="1">
          <mxGeometry x="180" y="340" width="140" height="70" as="geometry" />
        </mxCell>
        <mxCell id="3_46uCCfhdefUjpDQMR_-9" value="" style="edgeStyle=none;html=1;endArrow=none;verticalAlign=bottom;rounded=0;strokeColor=#028090;fontColor=#E4FDE1;fillColor=#F45B69;" edge="1" parent="1">
          <mxGeometry width="160" relative="1" as="geometry">
            <mxPoint x="78" y="50" as="sourcePoint" />
            <mxPoint x="182" y="50" as="targetPoint" />
          </mxGeometry>
        </mxCell>
        <mxCell id="3_46uCCfhdefUjpDQMR_-13" value="" style="edgeStyle=none;html=1;endArrow=none;verticalAlign=bottom;rounded=0;strokeColor=#028090;fontColor=#E4FDE1;fillColor=#F45B69;entryX=0.5;entryY=0;entryDx=0;entryDy=0;" edge="1" parent="1" target="3_46uCCfhdefUjpDQMR_-4">
          <mxGeometry width="160" relative="1" as="geometry">
            <mxPoint x="250" y="104" as="sourcePoint" />
            <mxPoint x="286" y="91" as="targetPoint" />
          </mxGeometry>
        </mxCell>
        <mxCell id="3_46uCCfhdefUjpDQMR_-14" value="" style="edgeStyle=none;html=1;endArrow=none;verticalAlign=bottom;rounded=0;strokeColor=#028090;fontColor=#E4FDE1;fillColor=#F45B69;exitX=0.5;exitY=1;exitDx=0;exitDy=0;entryX=0.5;entryY=0;entryDx=0;entryDy=0;" edge="1" parent="1" source="3_46uCCfhdefUjpDQMR_-4" target="3_46uCCfhdefUjpDQMR_-5">
          <mxGeometry width="160" relative="1" as="geometry">
            <mxPoint x="273" y="221" as="sourcePoint" />
            <mxPoint x="312" y="221" as="targetPoint" />
          </mxGeometry>
        </mxCell>
        <mxCell id="3_46uCCfhdefUjpDQMR_-15" value="Check Restaurant Name" style="ellipse;whiteSpace=wrap;html=1;strokeColor=#028090;fontColor=#E4FDE1;fillColor=#F45B69;" vertex="1" parent="1">
          <mxGeometry x="442" y="130" width="140" height="70" as="geometry" />
        </mxCell>
        <mxCell id="3_46uCCfhdefUjpDQMR_-19" value="" style="edgeStyle=none;html=1;endArrow=none;verticalAlign=bottom;rounded=0;strokeColor=#028090;fontColor=#E4FDE1;fillColor=#F45B69;entryX=0.5;entryY=0;entryDx=0;entryDy=0;" edge="1" parent="1" target="3_46uCCfhdefUjpDQMR_-6">
          <mxGeometry width="160" relative="1" as="geometry">
            <mxPoint x="250" y="299" as="sourcePoint" />
            <mxPoint x="260" y="338" as="targetPoint" />
          </mxGeometry>
        </mxCell>
        <mxCell id="3_46uCCfhdefUjpDQMR_-20" value="Accept/Reject Orders" style="ellipse;whiteSpace=wrap;html=1;strokeColor=#028090;fontColor=#E4FDE1;fillColor=#F45B69;" vertex="1" parent="1">
          <mxGeometry x="442" y="221" width="140" height="70" as="geometry" />
        </mxCell>
        <mxCell id="3_46uCCfhdefUjpDQMR_-21" value="" style="edgeStyle=none;html=1;endArrow=none;verticalAlign=bottom;rounded=0;strokeColor=#028090;fontColor=#E4FDE1;fillColor=#F45B69;exitX=1;exitY=0.5;exitDx=0;exitDy=0;" edge="1" parent="1" source="3_46uCCfhdefUjpDQMR_-4">
          <mxGeometry width="160" relative="1" as="geometry">
            <mxPoint x="312" y="247" as="sourcePoint" />
            <mxPoint x="442" y="165" as="targetPoint" />
          </mxGeometry>
        </mxCell>
        <mxCell id="3_46uCCfhdefUjpDQMR_-24" value="" style="edgeStyle=none;html=1;endArrow=none;verticalAlign=bottom;rounded=0;strokeColor=#028090;fontColor=#E4FDE1;fillColor=#F45B69;exitX=1;exitY=0.5;exitDx=0;exitDy=0;" edge="1" parent="1" source="3_46uCCfhdefUjpDQMR_-20">
          <mxGeometry width="160" relative="1" as="geometry">
            <mxPoint x="572" y="230" as="sourcePoint" />
            <mxPoint x="728" y="230" as="targetPoint" />
          </mxGeometry>
        </mxCell>
        <mxCell id="3_46uCCfhdefUjpDQMR_-25" value="" style="edgeStyle=none;html=1;endArrow=none;verticalAlign=bottom;rounded=0;strokeColor=#028090;fontColor=#E4FDE1;fillColor=#F45B69;exitX=1;exitY=1;exitDx=0;exitDy=0;entryX=0.5;entryY=0.5;entryDx=0;entryDy=0;entryPerimeter=0;" edge="1" parent="1" source="3_46uCCfhdefUjpDQMR_-15" target="3_46uCCfhdefUjpDQMR_-2">
          <mxGeometry width="160" relative="1" as="geometry">
            <mxPoint x="555" y="230" as="sourcePoint" />
            <mxPoint x="715" y="230" as="targetPoint" />
          </mxGeometry>
        </mxCell>
      </root>
    </mxGraphModel>
  </diagram>
  <diagram id="eiyFlEd8ycH2Zoa2oolP" name="Activity Diagram">
    <mxGraphModel dx="762" dy="431" grid="1" gridSize="13" guides="1" tooltips="1" connect="1" arrows="1" fold="1" page="1" pageScale="1" pageWidth="1100" pageHeight="850" math="0" shadow="0">
      <root>
        <mxCell id="0" />
        <mxCell id="1" parent="0" />
        <mxCell id="wtM7-SKp82FHQGwiZo1v-1" value="&lt;font color=&quot;#9999ff&quot;&gt;User&lt;/font&gt;" style="shape=ellipse;html=1;fillColor=strokeColor;strokeWidth=2;verticalLabelPosition=bottom;verticalAlignment=top;perimeter=ellipsePerimeter;strokeColor=#006658;fontColor=#5C5C5C;" vertex="1" parent="1">
          <mxGeometry x="52" y="52" width="40" height="40" as="geometry" />
        </mxCell>
        <mxCell id="wtM7-SKp82FHQGwiZo1v-2" value="&lt;font color=&quot;#ffff99&quot;&gt;Admin&lt;/font&gt;" style="shape=ellipse;html=1;fillColor=strokeColor;strokeWidth=2;verticalLabelPosition=bottom;verticalAlignment=top;perimeter=ellipsePerimeter;strokeColor=#006658;fontColor=#5C5C5C;" vertex="1" parent="1">
          <mxGeometry x="663" y="169" width="40" height="40" as="geometry" />
        </mxCell>
        <mxCell id="wtM7-SKp82FHQGwiZo1v-4" value="Login" style="points=[[0.25,0,0],[0.5,0,0],[0.75,0,0],[1,0.25,0],[1,0.5,0],[1,0.75,0],[0.75,1,0],[0.5,1,0],[0.25,1,0],[0,0.75,0],[0,0.5,0],[0,0.25,0]];shape=mxgraph.bpmn.task;whiteSpace=wrap;rectStyle=rounded;size=10;bpmnShapeType=call;taskMarker=user;strokeColor=#006658;fontColor=#25485C;fillColor=#21C0A5;" vertex="1" parent="1">
          <mxGeometry x="156" y="52" width="120" height="80" as="geometry" />
        </mxCell>
        <mxCell id="wtM7-SKp82FHQGwiZo1v-5" value="Search Restaurant Name &amp; Time" style="points=[[0.25,0,0],[0.5,0,0],[0.75,0,0],[1,0.25,0],[1,0.5,0],[1,0.75,0],[0.75,1,0],[0.5,1,0],[0.25,1,0],[0,0.75,0],[0,0.5,0],[0,0.25,0]];shape=mxgraph.bpmn.task;whiteSpace=wrap;rectStyle=rounded;size=10;bpmnShapeType=call;taskMarker=user;strokeColor=#006658;fontColor=#5C5C5C;fillColor=#21C0A5;" vertex="1" parent="1">
          <mxGeometry x="156" y="182" width="120" height="80" as="geometry" />
        </mxCell>
        <mxCell id="wtM7-SKp82FHQGwiZo1v-9" value="Order Food" style="points=[[0.25,0,0],[0.5,0,0],[0.75,0,0],[1,0.25,0],[1,0.5,0],[1,0.75,0],[0.75,1,0],[0.5,1,0],[0.25,1,0],[0,0.75,0],[0,0.5,0],[0,0.25,0]];shape=mxgraph.bpmn.task;whiteSpace=wrap;rectStyle=rounded;size=10;bpmnShapeType=call;taskMarker=user;strokeColor=#006658;fontColor=#25485C;fillColor=#21C0A5;" vertex="1" parent="1">
          <mxGeometry x="156" y="455" width="120" height="80" as="geometry" />
        </mxCell>
        <mxCell id="wtM7-SKp82FHQGwiZo1v-31" value="" style="shape=rhombus;html=1;verticalLabelPosition=top;verticalAlignment=bottom;strokeColor=#006658;fontColor=#25485C;fillColor=#21C0A5;" vertex="1" parent="1">
          <mxGeometry x="366" y="273" width="40" height="40" as="geometry" />
        </mxCell>
        <mxCell id="wtM7-SKp82FHQGwiZo1v-32" value="" style="edgeStyle=elbowEdgeStyle;html=1;elbow=horizontal;align=right;verticalAlign=bottom;rounded=0;labelBackgroundColor=none;endArrow=open;endSize=12;strokeColor=#006658;fontColor=#25485C;fillColor=#21C0A5;" edge="1" source="wtM7-SKp82FHQGwiZo1v-31" parent="1">
          <mxGeometry relative="1" as="geometry">
            <mxPoint x="386" y="353" as="targetPoint" />
          </mxGeometry>
        </mxCell>
        <mxCell id="wtM7-SKp82FHQGwiZo1v-33" value="" style="edgeStyle=elbowEdgeStyle;html=1;elbow=vertical;verticalAlign=bottom;startArrow=open;endArrow=none;rounded=0;labelBackgroundColor=none;startSize=12;strokeColor=#006658;fontColor=#25485C;fillColor=#21C0A5;" edge="1" source="wtM7-SKp82FHQGwiZo1v-31" parent="1">
          <mxGeometry relative="1" as="geometry">
            <mxPoint x="486" y="293" as="targetPoint" />
          </mxGeometry>
        </mxCell>
        <mxCell id="wtM7-SKp82FHQGwiZo1v-34" value="" style="edgeStyle=elbowEdgeStyle;html=1;elbow=vertical;verticalAlign=bottom;startArrow=open;endArrow=none;rounded=0;labelBackgroundColor=none;startSize=12;strokeColor=#006658;fontColor=#25485C;fillColor=#21C0A5;" edge="1" source="wtM7-SKp82FHQGwiZo1v-31" parent="1">
          <mxGeometry relative="1" as="geometry">
            <mxPoint x="286" y="293" as="targetPoint" />
          </mxGeometry>
        </mxCell>
      </root>
    </mxGraphModel>
  </diagram>
</mxfile>
